<mxfile host="app.diagrams.net" modified="2022-09-29T10:39:37.791Z" agent="5.0 (Windows NT 10.0; Win64; x64) AppleWebKit/537.36 (KHTML, like Gecko) Chrome/105.0.0.0 Safari/537.36" etag="3cUyVjNxPbE8j9xEZ5cA" version="20.3.6" type="github" pages="3">
  <diagram id="rSSbZOLpjgrv5jyWkGDf" name="PersonRegister-A">
    <mxGraphModel dx="2249" dy="1963" grid="1" gridSize="10" guides="1" tooltips="1" connect="1" arrows="1" fold="1" page="1" pageScale="1" pageWidth="827" pageHeight="1169" math="0" shadow="0">
      <root>
        <mxCell id="0" />
        <mxCell id="1" parent="0" />
        <mxCell id="muPlWyfttF7s8qyAshrl-5" value="CONTROLLER" style="whiteSpace=wrap;html=1;aspect=fixed;" parent="1" vertex="1">
          <mxGeometry x="-210" y="-450" width="80" height="80" as="geometry" />
        </mxCell>
        <mxCell id="muPlWyfttF7s8qyAshrl-6" value="SERVICE" style="whiteSpace=wrap;html=1;aspect=fixed;" parent="1" vertex="1">
          <mxGeometry x="-30" y="-450" width="80" height="80" as="geometry" />
        </mxCell>
        <mxCell id="muPlWyfttF7s8qyAshrl-7" value="EF CORE&lt;br&gt;Context" style="whiteSpace=wrap;html=1;aspect=fixed;fillColor=#fff2cc;strokeColor=#d6b656;" parent="1" vertex="1">
          <mxGeometry x="334" y="-450" width="80" height="80" as="geometry" />
        </mxCell>
        <mxCell id="muPlWyfttF7s8qyAshrl-27" value="" style="edgeStyle=orthogonalEdgeStyle;rounded=0;orthogonalLoop=1;jettySize=auto;html=1;" parent="1" source="muPlWyfttF7s8qyAshrl-8" target="muPlWyfttF7s8qyAshrl-26" edge="1">
          <mxGeometry relative="1" as="geometry" />
        </mxCell>
        <mxCell id="muPlWyfttF7s8qyAshrl-8" value="ASPNET&lt;br&gt;CORE&amp;nbsp;" style="whiteSpace=wrap;html=1;aspect=fixed;fillColor=#fff2cc;strokeColor=#d6b656;" parent="1" vertex="1">
          <mxGeometry x="-380" y="-450" width="80" height="80" as="geometry" />
        </mxCell>
        <mxCell id="muPlWyfttF7s8qyAshrl-29" value="" style="edgeStyle=orthogonalEdgeStyle;rounded=0;orthogonalLoop=1;jettySize=auto;html=1;" parent="1" source="muPlWyfttF7s8qyAshrl-9" target="muPlWyfttF7s8qyAshrl-28" edge="1">
          <mxGeometry relative="1" as="geometry" />
        </mxCell>
        <mxCell id="muPlWyfttF7s8qyAshrl-9" value="SQL SERVER&lt;br&gt;" style="whiteSpace=wrap;html=1;aspect=fixed;fillColor=#f8cecc;strokeColor=#b85450;" parent="1" vertex="1">
          <mxGeometry x="550" y="-450" width="80" height="80" as="geometry" />
        </mxCell>
        <mxCell id="muPlWyfttF7s8qyAshrl-10" value="POSTMAN&lt;br&gt;SWAGGER" style="whiteSpace=wrap;html=1;aspect=fixed;fillColor=#f8cecc;strokeColor=#b85450;" parent="1" vertex="1">
          <mxGeometry x="-540" y="-450" width="80" height="80" as="geometry" />
        </mxCell>
        <mxCell id="muPlWyfttF7s8qyAshrl-12" value="REPOSITORY&lt;br&gt;&lt;br&gt;" style="whiteSpace=wrap;html=1;aspect=fixed;" parent="1" vertex="1">
          <mxGeometry x="150" y="-450" width="80" height="80" as="geometry" />
        </mxCell>
        <mxCell id="muPlWyfttF7s8qyAshrl-13" value="Use" style="endArrow=open;endSize=12;dashed=1;html=1;rounded=0;exitX=1;exitY=0;exitDx=0;exitDy=0;entryX=0;entryY=0.5;entryDx=0;entryDy=0;" parent="1" source="muPlWyfttF7s8qyAshrl-5" target="muPlWyfttF7s8qyAshrl-41" edge="1">
          <mxGeometry width="160" relative="1" as="geometry">
            <mxPoint x="-100" y="-310" as="sourcePoint" />
            <mxPoint x="60" y="-310" as="targetPoint" />
          </mxGeometry>
        </mxCell>
        <mxCell id="muPlWyfttF7s8qyAshrl-14" value="dispatch" style="html=1;verticalAlign=bottom;startArrow=oval;startFill=1;endArrow=block;startSize=8;rounded=0;exitX=1;exitY=0.5;exitDx=0;exitDy=0;entryX=0;entryY=0.5;entryDx=0;entryDy=0;" parent="1" source="muPlWyfttF7s8qyAshrl-8" target="muPlWyfttF7s8qyAshrl-5" edge="1">
          <mxGeometry width="60" relative="1" as="geometry">
            <mxPoint x="-330" y="-330" as="sourcePoint" />
            <mxPoint x="-270" y="-330" as="targetPoint" />
          </mxGeometry>
        </mxCell>
        <mxCell id="muPlWyfttF7s8qyAshrl-18" value="Use" style="endArrow=open;endSize=12;dashed=1;html=1;rounded=0;exitX=1;exitY=0;exitDx=0;exitDy=0;entryX=0;entryY=0.5;entryDx=0;entryDy=0;" parent="1" source="muPlWyfttF7s8qyAshrl-6" target="muPlWyfttF7s8qyAshrl-42" edge="1">
          <mxGeometry width="160" relative="1" as="geometry">
            <mxPoint x="10" y="-350" as="sourcePoint" />
            <mxPoint x="170" y="-350" as="targetPoint" />
          </mxGeometry>
        </mxCell>
        <mxCell id="muPlWyfttF7s8qyAshrl-19" value="Use" style="endArrow=open;endSize=12;dashed=1;html=1;rounded=0;entryX=0;entryY=0.5;entryDx=0;entryDy=0;exitX=1;exitY=0.5;exitDx=0;exitDy=0;" parent="1" source="muPlWyfttF7s8qyAshrl-12" target="muPlWyfttF7s8qyAshrl-7" edge="1">
          <mxGeometry width="160" relative="1" as="geometry">
            <mxPoint x="180" y="-260" as="sourcePoint" />
            <mxPoint x="170" y="-350" as="targetPoint" />
          </mxGeometry>
        </mxCell>
        <mxCell id="muPlWyfttF7s8qyAshrl-20" value="dispatch" style="html=1;verticalAlign=bottom;startArrow=circle;startFill=1;endArrow=open;startSize=6;endSize=8;rounded=0;entryX=0;entryY=0.5;entryDx=0;entryDy=0;exitX=1;exitY=0.5;exitDx=0;exitDy=0;" parent="1" source="muPlWyfttF7s8qyAshrl-7" target="muPlWyfttF7s8qyAshrl-9" edge="1">
          <mxGeometry width="80" relative="1" as="geometry">
            <mxPoint x="50" y="-350" as="sourcePoint" />
            <mxPoint x="130" y="-350" as="targetPoint" />
            <Array as="points" />
          </mxGeometry>
        </mxCell>
        <mxCell id="muPlWyfttF7s8qyAshrl-21" value="dispatch" style="html=1;verticalAlign=bottom;startArrow=oval;startFill=1;endArrow=block;startSize=8;rounded=0;entryX=0;entryY=0.5;entryDx=0;entryDy=0;" parent="1" source="muPlWyfttF7s8qyAshrl-10" target="muPlWyfttF7s8qyAshrl-8" edge="1">
          <mxGeometry width="60" relative="1" as="geometry">
            <mxPoint x="60" y="-350" as="sourcePoint" />
            <mxPoint x="120" y="-350" as="targetPoint" />
          </mxGeometry>
        </mxCell>
        <mxCell id="muPlWyfttF7s8qyAshrl-26" value="Konfig:&lt;br&gt;Program.cs/&lt;br&gt;Appsettings.json&lt;br&gt;" style="whiteSpace=wrap;html=1;fillColor=#e1d5e7;strokeColor=#9673a6;" parent="1" vertex="1">
          <mxGeometry x="-400" y="-320" width="120" height="60" as="geometry" />
        </mxCell>
        <mxCell id="muPlWyfttF7s8qyAshrl-28" value="Docker&lt;br&gt;" style="ellipse;whiteSpace=wrap;html=1;fillColor=#e1d5e7;strokeColor=#9673a6;" parent="1" vertex="1">
          <mxGeometry x="530" y="-560" width="120" height="60" as="geometry" />
        </mxCell>
        <mxCell id="muPlWyfttF7s8qyAshrl-31" value="Domene&lt;br&gt;" style="whiteSpace=wrap;html=1;aspect=fixed;" parent="1" vertex="1">
          <mxGeometry x="160" y="-750" width="80" height="80" as="geometry" />
        </mxCell>
        <mxCell id="muPlWyfttF7s8qyAshrl-33" value="DTO&lt;br&gt;" style="whiteSpace=wrap;html=1;aspect=fixed;" parent="1" vertex="1">
          <mxGeometry x="-30" y="-750" width="80" height="80" as="geometry" />
        </mxCell>
        <mxCell id="muPlWyfttF7s8qyAshrl-41" value="ISERVICE" style="whiteSpace=wrap;html=1;aspect=fixed;" parent="1" vertex="1">
          <mxGeometry x="-30" y="-600" width="80" height="80" as="geometry" />
        </mxCell>
        <mxCell id="muPlWyfttF7s8qyAshrl-42" value="IREPOSITORY&lt;br&gt;" style="whiteSpace=wrap;html=1;aspect=fixed;" parent="1" vertex="1">
          <mxGeometry x="150" y="-600" width="90" height="90" as="geometry" />
        </mxCell>
        <mxCell id="muPlWyfttF7s8qyAshrl-43" value="" style="shape=flexArrow;endArrow=classic;html=1;rounded=0;entryX=0.5;entryY=1;entryDx=0;entryDy=0;" parent="1" target="muPlWyfttF7s8qyAshrl-41" edge="1">
          <mxGeometry width="50" height="50" relative="1" as="geometry">
            <mxPoint x="10" y="-450" as="sourcePoint" />
            <mxPoint x="20" y="-240" as="targetPoint" />
          </mxGeometry>
        </mxCell>
        <mxCell id="muPlWyfttF7s8qyAshrl-44" value="" style="shape=flexArrow;endArrow=classic;html=1;rounded=0;entryX=0.5;entryY=1;entryDx=0;entryDy=0;" parent="1" source="muPlWyfttF7s8qyAshrl-12" target="muPlWyfttF7s8qyAshrl-42" edge="1">
          <mxGeometry width="50" height="50" relative="1" as="geometry">
            <mxPoint x="60" y="-350" as="sourcePoint" />
            <mxPoint x="110" y="-400" as="targetPoint" />
          </mxGeometry>
        </mxCell>
        <mxCell id="muPlWyfttF7s8qyAshrl-45" value="Use" style="endArrow=open;endSize=12;dashed=1;html=1;rounded=0;entryX=0.5;entryY=1;entryDx=0;entryDy=0;" parent="1" source="muPlWyfttF7s8qyAshrl-42" target="muPlWyfttF7s8qyAshrl-31" edge="1">
          <mxGeometry width="160" relative="1" as="geometry">
            <mxPoint y="-380" as="sourcePoint" />
            <mxPoint x="160" y="-380" as="targetPoint" />
          </mxGeometry>
        </mxCell>
        <mxCell id="muPlWyfttF7s8qyAshrl-46" value="Use" style="endArrow=open;endSize=12;dashed=1;html=1;rounded=0;entryX=0.5;entryY=1;entryDx=0;entryDy=0;" parent="1" target="muPlWyfttF7s8qyAshrl-33" edge="1">
          <mxGeometry width="160" relative="1" as="geometry">
            <mxPoint x="10" y="-600" as="sourcePoint" />
            <mxPoint x="160" y="-380" as="targetPoint" />
          </mxGeometry>
        </mxCell>
        <mxCell id="muPlWyfttF7s8qyAshrl-47" value="Test" style="whiteSpace=wrap;html=1;aspect=fixed;" parent="1" vertex="1">
          <mxGeometry x="-30" y="-290" width="80" height="80" as="geometry" />
        </mxCell>
        <mxCell id="muPlWyfttF7s8qyAshrl-48" value="Use" style="endArrow=open;endSize=12;dashed=1;html=1;rounded=0;entryX=0.5;entryY=1;entryDx=0;entryDy=0;" parent="1" source="muPlWyfttF7s8qyAshrl-47" target="muPlWyfttF7s8qyAshrl-6" edge="1">
          <mxGeometry width="160" relative="1" as="geometry">
            <mxPoint y="-420" as="sourcePoint" />
            <mxPoint x="160" y="-420" as="targetPoint" />
          </mxGeometry>
        </mxCell>
        <mxCell id="muPlWyfttF7s8qyAshrl-49" value="Test" style="whiteSpace=wrap;html=1;aspect=fixed;" parent="1" vertex="1">
          <mxGeometry x="150" y="-290" width="80" height="80" as="geometry" />
        </mxCell>
        <mxCell id="muPlWyfttF7s8qyAshrl-50" value="Use" style="endArrow=open;endSize=12;dashed=1;html=1;rounded=0;entryX=0.5;entryY=1;entryDx=0;entryDy=0;exitX=0.5;exitY=0;exitDx=0;exitDy=0;" parent="1" source="muPlWyfttF7s8qyAshrl-49" target="muPlWyfttF7s8qyAshrl-12" edge="1">
          <mxGeometry width="160" relative="1" as="geometry">
            <mxPoint x="-220" y="-90" as="sourcePoint" />
            <mxPoint x="-60" y="-90" as="targetPoint" />
          </mxGeometry>
        </mxCell>
      </root>
    </mxGraphModel>
  </diagram>
  <diagram id="vXxAwRRBldA2pGSXcjIr" name="DataFlow-1">
    <mxGraphModel dx="1422" dy="794" grid="1" gridSize="10" guides="1" tooltips="1" connect="1" arrows="1" fold="1" page="1" pageScale="1" pageWidth="827" pageHeight="1169" math="0" shadow="0">
      <root>
        <mxCell id="0" />
        <mxCell id="1" parent="0" />
        <mxCell id="ZCriOgZqt0NMVLL1cac8-2" value="KLient&lt;br&gt;Postman&lt;br&gt;" style="whiteSpace=wrap;html=1;aspect=fixed;" parent="1" vertex="1">
          <mxGeometry x="40" y="210" width="80" height="80" as="geometry" />
        </mxCell>
        <mxCell id="ZCriOgZqt0NMVLL1cac8-3" value="DB-Server&lt;br&gt;MS SQLServer" style="whiteSpace=wrap;html=1;aspect=fixed;" parent="1" vertex="1">
          <mxGeometry x="670" y="210" width="80" height="80" as="geometry" />
        </mxCell>
        <mxCell id="ZCriOgZqt0NMVLL1cac8-4" value="WebApi" style="whiteSpace=wrap;html=1;aspect=fixed;" parent="1" vertex="1">
          <mxGeometry x="334" y="210" width="80" height="80" as="geometry" />
        </mxCell>
        <mxCell id="jvTk2t7XKLeiFBrrjc4q-1" value="" style="html=1;shadow=0;dashed=0;align=center;verticalAlign=middle;shape=mxgraph.arrows2.twoWayArrow;dy=0.6;dx=35;" parent="1" vertex="1">
          <mxGeometry x="134" y="235" width="200" height="30" as="geometry" />
        </mxCell>
        <mxCell id="jvTk2t7XKLeiFBrrjc4q-2" value="" style="html=1;shadow=0;dashed=0;align=center;verticalAlign=middle;shape=mxgraph.arrows2.twoWayArrow;dy=0.6;dx=35;" parent="1" vertex="1">
          <mxGeometry x="410" y="235" width="260" height="30" as="geometry" />
        </mxCell>
        <mxCell id="jvTk2t7XKLeiFBrrjc4q-3" value="DataFlow" style="text;html=1;strokeColor=none;fillColor=none;align=center;verticalAlign=middle;whiteSpace=wrap;rounded=0;" parent="1" vertex="1">
          <mxGeometry x="250" y="80" width="230" height="30" as="geometry" />
        </mxCell>
      </root>
    </mxGraphModel>
  </diagram>
  <diagram id="fJXIXcih_dDT9vurijHH" name="Domene">
    <mxGraphModel dx="1138" dy="635" grid="1" gridSize="10" guides="1" tooltips="1" connect="1" arrows="1" fold="1" page="1" pageScale="1" pageWidth="827" pageHeight="1169" math="0" shadow="0">
      <root>
        <mxCell id="0" />
        <mxCell id="1" parent="0" />
        <mxCell id="WSbnMzG1Br2v4DGjiM1R-2" value="Person" style="swimlane;fontStyle=1;childLayout=stackLayout;horizontal=1;startSize=30;horizontalStack=0;resizeParent=1;resizeParentMax=0;resizeLast=0;collapsible=1;marginBottom=0;fillColor=#ffe6cc;strokeColor=#d79b00;whiteSpace=wrap;" vertex="1" parent="1">
          <mxGeometry x="290" y="380" width="250" height="210" as="geometry">
            <mxRectangle x="290" y="380" width="80" height="30" as="alternateBounds" />
          </mxGeometry>
        </mxCell>
        <mxCell id="WSbnMzG1Br2v4DGjiM1R-3" value="int                PersonID" style="text;strokeColor=#6c8ebf;fillColor=#dae8fc;align=left;verticalAlign=middle;spacingLeft=4;spacingRight=4;overflow=hidden;points=[[0,0.5],[1,0.5]];portConstraint=eastwest;rotatable=0;" vertex="1" parent="WSbnMzG1Br2v4DGjiM1R-2">
          <mxGeometry y="30" width="250" height="30" as="geometry" />
        </mxCell>
        <mxCell id="WSbnMzG1Br2v4DGjiM1R-4" value="String          Fornavn" style="text;strokeColor=#82b366;fillColor=#d5e8d4;align=left;verticalAlign=middle;spacingLeft=4;spacingRight=4;overflow=hidden;points=[[0,0.5],[1,0.5]];portConstraint=eastwest;rotatable=0;" vertex="1" parent="WSbnMzG1Br2v4DGjiM1R-2">
          <mxGeometry y="60" width="250" height="30" as="geometry" />
        </mxCell>
        <mxCell id="WSbnMzG1Br2v4DGjiM1R-5" value="string           Etternavn" style="text;strokeColor=#82b366;fillColor=#d5e8d4;align=left;verticalAlign=middle;spacingLeft=4;spacingRight=4;overflow=hidden;points=[[0,0.5],[1,0.5]];portConstraint=eastwest;rotatable=0;" vertex="1" parent="WSbnMzG1Br2v4DGjiM1R-2">
          <mxGeometry y="90" width="250" height="30" as="geometry" />
        </mxCell>
        <mxCell id="WSbnMzG1Br2v4DGjiM1R-11" value="long             Personnummer" style="text;strokeColor=#b85450;fillColor=#f8cecc;align=left;verticalAlign=middle;spacingLeft=4;spacingRight=4;overflow=hidden;points=[[0,0.5],[1,0.5]];portConstraint=eastwest;rotatable=0;" vertex="1" parent="WSbnMzG1Br2v4DGjiM1R-2">
          <mxGeometry y="120" width="250" height="30" as="geometry" />
        </mxCell>
        <mxCell id="WSbnMzG1Br2v4DGjiM1R-12" value="string           Kallenavn" style="text;strokeColor=#82b366;fillColor=#d5e8d4;align=left;verticalAlign=middle;spacingLeft=4;spacingRight=4;overflow=hidden;points=[[0,0.5],[1,0.5]];portConstraint=eastwest;rotatable=0;" vertex="1" parent="WSbnMzG1Br2v4DGjiM1R-2">
          <mxGeometry y="150" width="250" height="30" as="geometry" />
        </mxCell>
        <mxCell id="WSbnMzG1Br2v4DGjiM1R-13" value="DateTime    CreateAt" style="text;strokeColor=#9673a6;fillColor=#e1d5e7;align=left;verticalAlign=middle;spacingLeft=4;spacingRight=4;overflow=hidden;points=[[0,0.5],[1,0.5]];portConstraint=eastwest;rotatable=0;" vertex="1" parent="WSbnMzG1Br2v4DGjiM1R-2">
          <mxGeometry y="180" width="250" height="30" as="geometry" />
        </mxCell>
        <mxCell id="WSbnMzG1Br2v4DGjiM1R-15" value="Fødsel" style="swimlane;fontStyle=1;childLayout=stackLayout;horizontal=1;startSize=30;horizontalStack=0;resizeParent=1;resizeParentMax=0;resizeLast=0;collapsible=1;marginBottom=0;" vertex="1" parent="1">
          <mxGeometry x="610" y="730" width="155" height="180" as="geometry">
            <mxRectangle x="470" y="640" width="80" height="30" as="alternateBounds" />
          </mxGeometry>
        </mxCell>
        <mxCell id="WSbnMzG1Br2v4DGjiM1R-20" value="int                        FødselID" style="text;strokeColor=#6c8ebf;fillColor=#dae8fc;align=left;verticalAlign=middle;spacingLeft=4;spacingRight=4;overflow=hidden;points=[[0,0.5],[1,0.5]];portConstraint=eastwest;rotatable=0;" vertex="1" parent="WSbnMzG1Br2v4DGjiM1R-15">
          <mxGeometry y="30" width="155" height="30" as="geometry" />
        </mxCell>
        <mxCell id="WSbnMzG1Br2v4DGjiM1R-16" value="Person                mor" style="text;strokeColor=#d79b00;fillColor=#ffe6cc;align=left;verticalAlign=middle;spacingLeft=4;spacingRight=4;overflow=hidden;points=[[0,0.5],[1,0.5]];portConstraint=eastwest;rotatable=0;" vertex="1" parent="WSbnMzG1Br2v4DGjiM1R-15">
          <mxGeometry y="60" width="155" height="30" as="geometry" />
        </mxCell>
        <mxCell id="WSbnMzG1Br2v4DGjiM1R-17" value="Person                far" style="text;strokeColor=#d79b00;fillColor=#ffe6cc;align=left;verticalAlign=middle;spacingLeft=4;spacingRight=4;overflow=hidden;points=[[0,0.5],[1,0.5]];portConstraint=eastwest;rotatable=0;" vertex="1" parent="WSbnMzG1Br2v4DGjiM1R-15">
          <mxGeometry y="90" width="155" height="30" as="geometry" />
        </mxCell>
        <mxCell id="WSbnMzG1Br2v4DGjiM1R-18" value="Person                barn" style="text;strokeColor=#d79b00;fillColor=#ffe6cc;align=left;verticalAlign=middle;spacingLeft=4;spacingRight=4;overflow=hidden;points=[[0,0.5],[1,0.5]];portConstraint=eastwest;rotatable=0;" vertex="1" parent="WSbnMzG1Br2v4DGjiM1R-15">
          <mxGeometry y="120" width="155" height="30" as="geometry" />
        </mxCell>
        <mxCell id="WSbnMzG1Br2v4DGjiM1R-19" value="DateTime            fødselTid" style="text;strokeColor=#9673a6;fillColor=#e1d5e7;align=left;verticalAlign=middle;spacingLeft=4;spacingRight=4;overflow=hidden;points=[[0,0.5],[1,0.5]];portConstraint=eastwest;rotatable=0;" vertex="1" parent="WSbnMzG1Br2v4DGjiM1R-15">
          <mxGeometry y="150" width="155" height="30" as="geometry" />
        </mxCell>
        <mxCell id="WSbnMzG1Br2v4DGjiM1R-21" value="Dødsfall" style="swimlane;fontStyle=1;childLayout=stackLayout;horizontal=1;startSize=30;horizontalStack=0;resizeParent=1;resizeParentMax=0;resizeLast=0;collapsible=1;marginBottom=0;" vertex="1" parent="1">
          <mxGeometry x="60" y="730" width="140" height="150" as="geometry">
            <mxRectangle x="100" y="640" width="90" height="30" as="alternateBounds" />
          </mxGeometry>
        </mxCell>
        <mxCell id="WSbnMzG1Br2v4DGjiM1R-22" value="int                DødsfallID" style="text;strokeColor=#6c8ebf;fillColor=#dae8fc;align=left;verticalAlign=middle;spacingLeft=4;spacingRight=4;overflow=hidden;points=[[0,0.5],[1,0.5]];portConstraint=eastwest;rotatable=0;" vertex="1" parent="WSbnMzG1Br2v4DGjiM1R-21">
          <mxGeometry y="30" width="140" height="30" as="geometry" />
        </mxCell>
        <mxCell id="WSbnMzG1Br2v4DGjiM1R-23" value="Person        person" style="text;strokeColor=#d79b00;fillColor=#ffe6cc;align=left;verticalAlign=middle;spacingLeft=4;spacingRight=4;overflow=hidden;points=[[0,0.5],[1,0.5]];portConstraint=eastwest;rotatable=0;" vertex="1" parent="WSbnMzG1Br2v4DGjiM1R-21">
          <mxGeometry y="60" width="140" height="30" as="geometry" />
        </mxCell>
        <mxCell id="WSbnMzG1Br2v4DGjiM1R-24" value="string          dødsårsak" style="text;strokeColor=#82b366;fillColor=#d5e8d4;align=left;verticalAlign=middle;spacingLeft=4;spacingRight=4;overflow=hidden;points=[[0,0.5],[1,0.5]];portConstraint=eastwest;rotatable=0;" vertex="1" parent="WSbnMzG1Br2v4DGjiM1R-21">
          <mxGeometry y="90" width="140" height="30" as="geometry" />
        </mxCell>
        <mxCell id="WSbnMzG1Br2v4DGjiM1R-25" value="DateTime    dødsTid" style="text;strokeColor=#9673a6;fillColor=#e1d5e7;align=left;verticalAlign=middle;spacingLeft=4;spacingRight=4;overflow=hidden;points=[[0,0.5],[1,0.5]];portConstraint=eastwest;rotatable=0;" vertex="1" parent="WSbnMzG1Br2v4DGjiM1R-21">
          <mxGeometry y="120" width="140" height="30" as="geometry" />
        </mxCell>
        <mxCell id="L5YwE0Qth7X_ksUaXsTb-3" value="" style="curved=1;endArrow=classic;html=1;rounded=0;exitX=0;exitY=0.5;exitDx=0;exitDy=0;entryX=1;entryY=0;entryDx=0;entryDy=0;" edge="1" parent="1" source="WSbnMzG1Br2v4DGjiM1R-17" target="WSbnMzG1Br2v4DGjiM1R-2">
          <mxGeometry width="50" height="50" relative="1" as="geometry">
            <mxPoint x="380" y="620" as="sourcePoint" />
            <mxPoint x="430" y="570" as="targetPoint" />
            <Array as="points">
              <mxPoint x="470" y="780" />
              <mxPoint x="650" y="450" />
            </Array>
          </mxGeometry>
        </mxCell>
        <mxCell id="L5YwE0Qth7X_ksUaXsTb-4" value="" style="curved=1;endArrow=classic;html=1;rounded=0;exitX=0;exitY=0.5;exitDx=0;exitDy=0;entryX=1;entryY=0;entryDx=0;entryDy=0;" edge="1" parent="1" source="WSbnMzG1Br2v4DGjiM1R-18" target="WSbnMzG1Br2v4DGjiM1R-2">
          <mxGeometry width="50" height="50" relative="1" as="geometry">
            <mxPoint x="380" y="620" as="sourcePoint" />
            <mxPoint x="430" y="570" as="targetPoint" />
            <Array as="points">
              <mxPoint x="490" y="760" />
              <mxPoint x="730" y="450" />
            </Array>
          </mxGeometry>
        </mxCell>
        <mxCell id="L5YwE0Qth7X_ksUaXsTb-5" value="" style="curved=1;endArrow=classic;html=1;rounded=0;exitX=0;exitY=0.5;exitDx=0;exitDy=0;entryX=1;entryY=0;entryDx=0;entryDy=0;" edge="1" parent="1" source="WSbnMzG1Br2v4DGjiM1R-16" target="WSbnMzG1Br2v4DGjiM1R-2">
          <mxGeometry width="50" height="50" relative="1" as="geometry">
            <mxPoint x="380" y="620" as="sourcePoint" />
            <mxPoint x="430" y="570" as="targetPoint" />
            <Array as="points">
              <mxPoint x="560" y="690" />
              <mxPoint x="730" y="560" />
              <mxPoint x="720" y="440" />
            </Array>
          </mxGeometry>
        </mxCell>
        <mxCell id="L5YwE0Qth7X_ksUaXsTb-6" value="" style="curved=1;endArrow=classic;html=1;rounded=0;exitX=1;exitY=0.5;exitDx=0;exitDy=0;entryX=0;entryY=0;entryDx=0;entryDy=0;" edge="1" parent="1" source="WSbnMzG1Br2v4DGjiM1R-23" target="WSbnMzG1Br2v4DGjiM1R-2">
          <mxGeometry width="50" height="50" relative="1" as="geometry">
            <mxPoint x="380" y="620" as="sourcePoint" />
            <mxPoint x="430" y="570" as="targetPoint" />
            <Array as="points">
              <mxPoint x="310" y="690" />
              <mxPoint x="190" y="460" />
            </Array>
          </mxGeometry>
        </mxCell>
      </root>
    </mxGraphModel>
  </diagram>
</mxfile>
